Coordinates
version=1
nRows=17
nColumns=24
inDegrees=yes

Units are S.I. units (second, meters, Newtons, ...)
Angles are in degrees.

endheader
time	pelvis_tilt	pelvis_list	pelvis_rotation	pelvis_tx	pelvis_ty	pelvis_tz	hip_flexion_r	hip_adduction_r	hip_rotation_r	knee_angle_r	ankle_angle_r	subtalar_angle_r	mtp_angle_r	hip_flexion_l	hip_adduction_l	hip_rotation_l	knee_angle_l	ankle_angle_l	subtalar_angle_l	mtp_angle_l	lumbar_extension	lumbar_bending	lumbar_rotation
      6.41500000	     37.68287886	     10.75653545	      8.73334613	      0.78750121	      0.65658187	     -0.26367950	    -17.45987833	     -6.91732552	    -19.81061438	      1.28449702	     11.83404342	      8.59530234	      0.00000000	    -51.50800168	      2.38842281	      6.03860846	    -18.28640636	     24.05211343	     17.38301485	      0.00000000	    -65.33136847	      0.56452152	    -17.20227668
      6.42000000	     37.84622614	     10.68022118	      8.85020202	      0.79373214	      0.65649235	     -0.26326746	    -17.69856316	     -6.66789721	    -19.72440312	      0.58971967	     11.74396392	      8.35209006	      0.00000000	    -51.79224325	      2.01066919	      6.13420070	    -19.13260620	     23.50164229	     17.60168859	      0.00000000	    -65.35641991	      0.69568993	    -17.13967648
      6.42500000	     38.04718895	     10.57968658	      8.97801199	      0.80005985	      0.65646226	     -0.26283565	    -18.02852755	     -6.36448098	    -19.52620389	     -0.05562372	     11.53159719	      8.02713833	      0.00000000	    -52.08037725	      1.58926752	      6.17285370	    -20.04921064	     22.86524257	     17.85511356	      0.00000000	    -65.39142278	      0.85117187	    -17.08185169
      6.43000000	     38.23098884	     10.43911057	      9.08992634	      0.80643644	      0.65645895	     -0.26243692	    -18.32299397	     -6.03766487	    -19.27502363	     -0.75620552	     11.26268196	      7.79066170	      0.00000000	    -52.32368316	      1.16347943	      6.15705125	    -20.99789535	     22.13706663	     18.10075931	      0.00000000	    -65.39191347	      1.02826756	    -16.99479477
      6.43500000	     38.40200596	     10.28051493	      9.20023291	      0.81282350	      0.65650089	     -0.26203314	    -18.60032603	     -5.69590726	    -18.96445756	     -1.47930991	     10.89555939	      7.55620801	      0.00000000	    -52.50543745	      0.73193579	      6.10292425	    -22.01472008	     21.30593638	     18.35582347	      0.00000000	    -65.38286373	      1.21287915	    -16.88727423
      6.44000000	     38.62394099	     10.04741072	      9.31006766	      0.81929824	      0.65658556	     -0.26165230	    -18.92098487	     -5.26167061	    -18.44479056	     -2.22548301	     10.45976983	      7.10606395	      0.00000000	    -52.72562574	      0.23273041	      5.93724632	    -23.03986163	     20.41487940	     18.65564745	      0.00000000	    -65.39057239	      1.45648097	    -16.72676950
      6.44500000	     38.81209010	      9.79786036	      9.38356122	      0.82573070	      0.65670781	     -0.26126272	    -19.19409114	     -4.83260381	    -17.91049195	     -2.96660474	      9.93787138	      6.76093751	      0.00000000	    -52.83375489	     -0.22759281	      5.71387561	    -24.18145268	     19.37387391	     18.92501363	      0.00000000	    -65.37726530	      1.68399703	    -16.53033803
      6.45000000	     38.94437025	      9.60727985	      9.51194881	      0.83209961	      0.65689711	     -0.26089399	    -19.43849450	     -4.46108140	    -17.47232460	     -3.68944075	      9.36882395	      6.64291770	      0.00000000	    -52.79202961	     -0.66948781	      5.52356625	    -25.45669205	     18.18027850	     19.13107141	      0.00000000	    -65.33762728	      1.89753248	    -16.42049773
      6.45500000	     39.12789670	      9.26311788	      9.59445619	      0.83855636	      0.65708392	     -0.26051084	    -19.66885996	     -3.92260314	    -16.61757898	     -4.47527747	      8.74955083	      5.93865359	      0.00000000	    -52.78096157	     -1.19780818	      5.14584925	    -26.74316378	     16.95526396	     19.39284581	      0.00000000	    -65.31056466	      2.19729046	    -16.16562081
      6.46000000	     39.28164235	      8.93367599	      9.64409406	      0.84493553	      0.65731758	     -0.26009962	    -19.85855646	     -3.42427923	    -15.79644350	     -5.26503948	      8.13842672	      5.47451996	      0.00000000	    -52.65624713	     -1.67649584	      4.69831578	    -28.13599388	     15.53956589	     19.57088751	      0.00000000	    -65.28244971	      2.45000017	    -15.89648508
      6.46500000	     39.41562668	      8.60397867	      9.72461261	      0.85127991	      0.65758627	     -0.25970966	    -20.02883923	     -2.91485330	    -14.97147691	     -6.06045721	      7.55486943	      4.99024472	      0.00000000	    -52.42794578	     -2.16925420	      4.25147243	    -29.63691446	     14.00371532	     19.68249425	      0.00000000	    -65.24572881	      2.72881811	    -15.66765929
      6.47000000	     39.54076150	      8.26138097	      9.80027070	      0.85757676	      0.65787866	     -0.25930756	    -20.17344879	     -2.39205031	    -14.10003676	     -6.87961624	      7.01995211	      4.46784109	      0.00000000	    -52.11387933	     -2.66381180	      3.75384726	    -31.22379784	     12.33866409	     19.71333095	      0.00000000	    -65.21184718	      3.01067824	    -15.43429871
      6.47500000	     39.65321913	      7.91251390	      9.87422845	      0.86382525	      0.65818963	     -0.25889346	    -20.29459198	     -1.86124097	    -13.21876749	     -7.71632703	      6.56109470	      3.93974446	      0.00000000	    -51.70970561	     -3.15788927	      3.22242932	    -32.89240201	     10.54685683	     19.64063788	      0.00000000	    -65.18099042	      3.29294542	    -15.20220494
      6.48000000	     39.75174123	      7.56229895	      9.94656228	      0.87002324	      0.65851343	     -0.25847640	    -20.39596940	     -1.32769069	    -12.34245819	     -8.56600038	      6.19534165	      3.40251639	      0.00000000	    -51.21564445	     -3.64773566	      2.66830365	    -34.63402331	      8.63726106	     19.44683356	      0.00000000	    -65.15116571	      3.57427945	    -14.97524998
      6.48500000	     39.84826299	      7.22970100	     10.04883961	      0.87617686	      0.65885854	     -0.25804877	    -20.51030909	     -0.79246595	    -11.53857564	     -9.41004501	      5.93727197	      2.91205411	      0.00000000	    -50.64753585	     -4.15353889	      2.12605077	    -36.43373675	      6.62991613	     19.10942505	      0.00000000	    -65.13323327	      3.85968607	    -14.78096693
      6.49000000	     39.93892394	      6.90133721	     10.14985099	      0.88226718	      0.65920815	     -0.25762623	    -20.62789418	     -0.25714338	    -10.78483220	    -10.24033338	      5.78818954	      2.41342005	      0.00000000	    -50.00299708	     -4.64990833	      1.58719738	    -38.28726070	      4.54854704	     18.60915934	      0.00000000	    -65.12474878	      4.14703964	    -14.60190822
      6.49500000	     40.01811630	      6.58806530	     10.26513807	      0.88832379	      0.65956731	     -0.25717492	    -20.74981869	      0.27526663	    -10.08869412	    -11.05970768	      5.76239092	      1.95154265	      0.00000000	    -49.28859974	     -5.15083468	      1.06347288	    -40.16306706	      2.41470362	     17.96816760	      0.00000000	    -65.11341031	      4.41576307	    -14.43003552
